<svg id="Layer_1" data-name="Layer 1" xmlns="http://www.w3.org/2000/svg" viewBox="0 0 182 64"><defs><style>.cls-1{fill:#fff;}</style></defs><title>towa_logo</title><path class="cls-1" d="M152.49.42,136.37,35.34V.42H124.73L107.52,37.69V.42H96.4V17.57C91.44,7.63,82.18,1,71,.42H6.77L1.69,11H23L1,63.58H14.38L36.42,11h9.65a31.9,31.9,0,0,0-7.75,21c0,17.42,13.79,31.58,30.74,31.58A30.51,30.51,0,0,0,96.4,46.43V63.58H107l.5-1,17.77-38.5v39.5H136l.38-.78L165.17.42ZM69.06,52.3C58.16,52.3,49.3,43.19,49.3,32s8.86-20.29,19.76-20.29S88.81,20.81,88.81,32,80,52.3,69.06,52.3"/><polygon class="cls-1" points="181 63.58 156.5 63.58 162.29 51.02 170.93 51.02 170.93 24.66 152.96 63.58 140.28 63.58 169.44 0.42 180.99 0.42 181 2.71 181 63.58"/></svg>